Heartless City or Cruel City
============================

A drama about a police officer joining a gang to investigate a drug case.

Yoon Soo Min (Nam Gyu Ri) decides to find her friend’s killer by going undercover and finishing what she started. However, she ends up falling in love with the drug lord, Jung Shi Hyun (Jung Kyung Ho) who might have had a role in her friend’s death.

General

Format                           : MPEG-4
Format profile                   : Base Media
Codec ID                         : isom
File size                        : 991 MiB
Duration                         : 58mn 33s
Overall bit rate                 : 2 367 Kbps
Encoded date                     : UTC 2013-05-27 14:09:04
Tagged date                      : UTC 2013-05-27 14:09:04

Video
ID                               : 1
Format                           : AVC
Format/Info                      : Advanced Video Codec
Format profile                   : High@L4.1
Format settings, CABAC           : Yes
Format settings, ReFrames        : 4 frames
Codec ID                         : avc1
Codec ID/Info                    : Advanced Video Coding
Duration                         : 58mn 33s
Bit rate mode                    : Variable
Bit rate                         : 2 200 Kbps
Maximum bit rate                 : 17.5 Mbps
Width                            : 1 280 pixels
Height                           : 720 pixels
Display aspect ratio             : 16:9
Frame rate mode                  : Constant
Frame rate                       : 29.970 fps
Color space                      : YUV
Chroma subsampling               : 4:2:0
Bit depth                        : 8 bits
Scan type                        : Progressive
Bits/(Pixel*Frame)               : 0.080
Stream size                      : 936 MiB (94%)
Tagged date                      : UTC 2013-05-27 14:09:07

Audio
ID                               : 2
Format                           : MPEG Audio
Format version                   : Version 1
Format profile                   : Layer 3
Mode                             : Joint stereo
Mode extension                   : MS Stereo
Codec ID                         : 6B
Duration                         : 58mn 33s
Bit rate mode                    : Constant
Bit rate                         : 128 Kbps
Maximum bit rate                 : 132 Kbps
Channel(s)                       : 2 channels
Sampling rate                    : 48.0 KHz
Compression mode                 : Lossy
Stream size                      : 53.6 MiB (5%)
Title                            : Ì
Encoded date                     : UTC 2013-05-27 14:09:04
Tagged date                      : UTC 2013-05-27 14:09:07

Screenshot                       : http://bayimg.com/PAnhKAAEF

Attached files included:

Episode 1 - Episode 8

1. [JTBC] 무정도시.E01.130528.HDTV.H264.720p-WITH (Eng Sub)
2. [JTBC] 무정도시.E02.130528.HDTV.H264.720p-WITH (Eng Sub)
3. [JTBC] 무정도시.E03.130528.HDTV.H264.720p-WITH (Eng Sub)
4. [JTBC] 무정도시.E04.130528.HDTV.H264.720p-WITH (Eng Sub)
5. [JTBC] 무정도시.E05.130528.HDTV.H264.720p-WITH (Eng Sub)
6. [JTBC] 무정도시.E06.130528.HDTV.H264.720p-WITH (Eng Sub)
7. [JTBC] 무정도시.E07.130528.HDTV.H264.720p-WITH (Eng Sub)
8. [JTBC] 무정도시.E08.130528.HDTV.H264.720p-WITH (N/A)
